<svg width="24" height="24" viewBox="0 0 1000 1000" xmlns="http://www.w3.org/2000/svg">
    <path d=" M 754 131C 784 143 810 164 836 189C 859 212 876 250 873 279C 872 361 853 442 818 516C 725 714 524 859 305 875C 247 884 193 852 156 810C 123 783 114 735 134 698C 152 651 203 634 247 623C 287 606 339 590 384 608C 413 615 444 664 473 635C 544 583 608 518 642 436C 611 416 584 383 583 345C 590 296 598 247 617 201C 631 156 678 129 723 127C 733 127 744 128 754 131C 754 131 754 131 754 131M 698 184C 656 201 653 253 643 291C 641 319 621 351 646 374C 659 396 700 400 698 430C 665 529 592 611 508 670C 482 699 436 701 405 679C 373 649 325 642 286 662C 251 680 198 677 180 718C 157 756 200 785 226 805C 262 835 311 826 353 819C 553 783 726 634 793 443C 813 384 827 321 821 258C 805 219 766 185 724 177C 715 177 706 180 698 184C 698 184 698 184 698 184" transform="rotate(90,500,500)"/>
</svg>
