<?xml version="1.0" encoding="utf-8"?>
<!-- Generator: Adobe Illustrator 25.1.0, SVG Export Plug-In . SVG Version: 6.00 Build 0)  -->
<svg version="1.1" id="Layer_1" xmlns="http://www.w3.org/2000/svg" xmlns:xlink="http://www.w3.org/1999/xlink" x="0px" y="0px"
	 viewBox="0 0 360 360" style="enable-background:new 0 0 360 360;" xml:space="preserve">
<style type="text/css">
	.st0{fill:#00925C;}
	.st1{fill:#FFFFFF;}
</style>
<rect class="st0" width="360" height="360"/>
<path class="st1" d="M204.3,36.8c9.8,4.1,49.4,25.7,54.4,32.5c-21,2.8-61,14.7-81.3,25.3c23.2-5.1,55.6-7.8,77.9-9
	c-8.7,12.8-13.4,19.3-27.5,34.6c24.1-14.5,30.8-15.5,53.1-28.5c8.3,12.4,10.5,41.1,10.8,63.9c7.3-14.5,16.1-68.8,12.4-78.7
	c13.4-8.8,13.4-12.3,16.9-18.2c-13.5,1.2-21.1,1.4-28.5,3.7C273.9,51,235.6,39.3,204.3,36.8L204.3,36.8z M151.5,105.8
	c-6,0.9-23,8.5-34.3,17.4c0,0-7.5-0.9-20.1-0.5c-12.6,0.5-29,3.7-35.4,6.3c12.3,0.6,28.9,3.6,35.4,10c0,0-18.7,16.8-37,53.6
	c0,0,33.6-31.3,48-39.1c0,0,7.4,25.4,12.7,38c0,0,4.7-29.3,12.4-46.2c0,0,2.2-1.3,12.9-2.4c10.7-0.9,25.7-1.6,54.6,3.4
	c0,0-26.6-16.9-59.4-21.4C142.8,120.5,147.4,110.9,151.5,105.8L151.5,105.8z M57,205.5c-2.1,18.1-2.8,31.2-0.3,45.7
	c-8.2,2.2-14.1,4.1-20.9,7.1c9.5,5.8,17.3,10.4,28,15.3c5.6,12.2,11.4,20.2,20.9,29.6c-2.2-8-2.7-14.3-1.8-22.7
	c11.9,3.5,21.9,5.4,35.4,5.8c-12.9-4.8-22.1-10.3-32.2-19.8c3.1-8.3,6.5-14.9,12.1-23.2c-10.3,1.5-18,2.7-26.9,4.5
	C64,235,60.7,222.6,57,205.5z M214.9,261.8c-9.1,6.4-17,11.4-27.5,16.4c-0.5-4.9-0.8-9-1.1-14.5c-5.9,7.9-10.9,13.9-17.4,21.1
	c-11.1,3-19.9,4.2-30.6,4.2c6.5,3.4,13.2,5.5,20.1,6.9c-6.9,6.3-12.9,10.8-19.5,15c11.3-2.7,26-7.5,37-14c5.7,0.2,11.4-0.1,15.3-0.8
	c-0.9-3.4-1.7-5.9-2.6-10.3C199,277.7,206.3,270.5,214.9,261.8L214.9,261.8z"/>
</svg>
