<?xml version="1.0" encoding="utf-8"?>
<!-- Generator: Adobe Illustrator 19.0.0, SVG Export Plug-In . SVG Version: 6.00 Build 0)  -->
<svg version="1.1" id="Ñëîé_1" xmlns="http://www.w3.org/2000/svg" xmlns:xlink="http://www.w3.org/1999/xlink" x="0px" y="0px"
	 viewBox="0 0 500 500" style="enable-background:new 0 0 500 500;" xml:space="preserve">
<style type="text/css">
	.st0{fill:#D7063B;}
</style>
<g id="layer1" transform="translate(-219.13624,-147.37412)">
	<g id="g21287" transform="matrix(1.3413911,0,0,-1.3413911,-345.83023,1241.261)">
		<path id="path4448" class="st0" d="M577.8,629.1c0-9.4,7-16.4,18.7-16.4c4.9,0,9.6,0.8,14.4,3l4.4-6c-6-3.2-11.9-4.9-20.8-4.9
			c-18.6,0-32.3,9-32.3,24.2v0c0,15.2,13.7,24.2,32.3,24.2c8.9,0,14.1-1.3,20.4-4l-4.5-6.9c-4.8,2.5-8.9,3.1-13.8,3.1
			C584.8,645.5,577.8,638.6,577.8,629.1"/>
		<path id="path4450" class="st0" d="M648.9,653.3c-18,0-31.1-9-31.1-24.2c0-15.2,13-24.2,31.1-24.2s31,9,31,24.2
			C679.9,644.4,666.9,653.3,648.9,653.3 M648.9,612.4c-9.9,0-15.4,7.5-15.4,16.7s5.5,16.7,15.4,16.7c9.9,0,15.4-7.5,15.4-16.7
			S658.8,612.4,648.9,612.4"/>
		<path id="path4452" class="st0" d="M726.8,625.6v-19.5h14.9v46h-14.9v-17.5H704v17.5h-14.9v-46H704v19.5H726.8z"/>
		<path id="path4454" class="st0" d="M537.4,606.1h15.7v46h-15.7V606.1z"/>
		<path id="path4456" class="st0" d="M492.4,631.1l0-4.4c7.4-5.7,14.9-13.3,20.4-20.5h17.6c-6.1,7.2-15.5,15.7-22.4,20
			c8.1,0.3,17.2,3.6,17.2,12.9c0,12-12.8,14.1-25.7,14.1c-10.5,0-20.3-0.5-26.1-1v-46.1H488v39.2c2.7,0.3,5.6,0.6,11.5,0.6
			c7.5,0,11.4-2.5,11.4-6.8C510.9,635.3,509.3,630.9,492.4,631.1"/>
	</g>
</g>
</svg>
