<svg xmlns="http://www.w3.org/2000/svg" viewBox="0 0 174.2 71.03"><title>Akamai Technologies logo</title><path d="M478,528.45h-7.13L477,516h.08l.89,12.44Zm.34,5.6.42,4.92h7.81L484,510.24H472.32L457.59,539h8l2.46-4.92Z" transform="translate(-424.9 -476.48)" style="fill:#f38b00"/><polygon points="72.6 49.93 73.75 49.93 79.35 42.37 86.57 42.37 78.84 52.05 83.6 62.5 75.91 62.5 72.81 54.34 71.67 54.34 69.93 62.5 63.34 62.5 69.42 33.75 76.04 33.75 72.6 49.93" style="fill:#f38b00"/><path d="M519.92,530.66c2.17,0,3.57.17,3.23,1.83-.47,2.12-1.36,2.46-4.12,2.46-1,0-2.89,0-2.42-2.17.38-1.83,1.7-2.12,3.31-2.12Zm1.83,8.32h6.58L531,526.41c1.49-6.92-1.19-7.77-7.94-7.77-4.71,0-9.26,0-10.61,6.2H519c.38-1.83,1.49-2.17,3.14-2.17,2.89,0,2.76,1.19,2.34,3.06l-.68,3.18h-.3c-.25-2.29-3.14-2.25-5-2.25-4.76,0-7.6,1.49-8.62,6.33-1.1,5.14,1.36,6.24,5.94,6.24,2.29,0,5.39-.47,6.45-3.23h.21l-.76,3Z" transform="translate(-424.9 -476.48)" style="fill:#f38b00"/><path d="M541.66,518.86l-.59,2.84h.25c1.32-2.38,3.91-3.06,6.16-3.06,2.84,0,5.65.51,5.26,3.95h.3c1-2.89,3.91-3.95,6.45-3.95,4.63,0,6.62,1.91,5.6,6.58L562.16,539h-6.58L558,527.35c.34-2.12.68-3.65-1.87-3.65s-3.44,1.7-3.86,3.86L549.89,539h-6.58l2.59-12.19c.3-1.83.47-3.1-1.83-3.1-2.72,0-3.52,1.44-4,3.86L537.62,539H531l4.29-20.12Z" transform="translate(-424.9 -476.48)" style="fill:#f38b00"/><path d="M575.45,530.66c2.12,0,3.57.17,3.23,1.83-.42,2.12-1.36,2.46-4.12,2.46-1,0-2.89,0-2.42-2.17.38-1.83,1.7-2.12,3.31-2.12Zm1.83,8.32h6.58l2.67-12.57c1.49-6.92-1.19-7.77-7.94-7.77-4.71,0-9.3,0-10.61,6.2h6.58c.38-1.83,1.49-2.17,3.14-2.17,2.89,0,2.76,1.19,2.34,3.06l-.59,3.18h-.3c-.25-2.29-3.14-2.25-5-2.25-4.76,0-7.6,1.49-8.62,6.33-1.1,5.14,1.36,6.24,5.94,6.24,2.29,0,5.39-.47,6.5-3.23h.21l-.89,3Z" transform="translate(-424.9 -476.48)" style="fill:#f38b00"/><path d="M593.37,539h-6.58L591,518.86h6.58L593.37,539Z" transform="translate(-424.9 -476.48)" style="fill:#f38b00"/><path d="M460.95,545.94a35.43,35.43,0,0,1,.47-68c1.53-.42,1.1-1.44-.72-1.44a35.52,35.52,0,1,0,0,71C462.52,547.52,462.6,546.45,460.95,545.94Z" transform="translate(-424.9 -476.48)" style="fill:#009bde"/><path d="M442.48,520.3c-.08-.93-.17-1.91-.17-2.89a28.18,28.18,0,0,1,28.19-28.19c14.73,0,19.15,6.58,19.7,6.16s-5.35-13.5-22.63-13.5a28.18,28.18,0,0,0-28.19,28.19,27.87,27.87,0,0,0,1.91,10.19C441.8,521.62,442.6,521.62,442.48,520.3Z" transform="translate(-424.9 -476.48)" style="fill:#009bde"/><path d="M454.28,500c7.3-3.18,16.52-3.27,25.56-.13,6.07,2.12,9.6,5.14,9.89,5,.47-.21-3.52-6.58-10.78-9.3a25.81,25.81,0,0,0-25.09,3.82C453.09,500,453.39,500.39,454.28,500Z" transform="translate(-424.9 -476.48)" style="fill:#009bde"/><path d="M599.1,513.29a3.69,3.69,0,1,1-3.69-3.69A3.7,3.7,0,0,1,599.1,513.29Z" transform="translate(-424.9 -476.48)" style="fill:#f38b00"/></svg>