<?xml version="1.0" standalone="no"?>
<svg version="1.0" xmlns="http://www.w3.org/2000/svg"
 width="660" height="160" viewBox="300 240 660 160"
 preserveAspectRatio="xMidYMid meet">
  <style>path { fill: #5a2e83; }</style>
<g transform="translate(0.000000,630.000000) scale(0.100000,-0.100000)"
fill="#000000" stroke="none">
<path d="M4290 3819 c-149 -11 -413 -49 -475 -69 -16 -5 -57 -17 -90 -26 -66
-18 -139 -41 -170 -55 -120 -50 -157 -71 -256 -146 -50 -37 -149 -157 -149
-180 0 -4 -8 -21 -17 -38 -13 -23 -17 -57 -17 -150 -1 -112 1 -124 27 -180 64
-134 167 -228 332 -304 39 -18 78 -37 87 -42 10 -5 23 -9 29 -9 6 0 25 -6 42
-14 18 -8 41 -16 52 -19 11 -3 54 -14 96 -25 187 -52 504 -90 744 -90 101 0
88 8 -45 27 -47 7 -92 16 -100 21 -9 4 -36 11 -60 15 -99 15 -269 87 -375 157
-206 138 -300 356 -249 580 10 43 21 78 26 78 4 0 8 7 8 16 0 39 130 204 160
204 6 0 10 4 10 9 0 12 130 90 190 115 25 10 54 22 65 27 19 8 129 40 205 59
19 5 78 14 130 21 52 6 102 16 110 20 18 10 -162 9 -310 -2z"/>
<path d="M4915 3620 c-107 -17 -162 -41 -214 -91 -30 -28 -101 -130 -101 -145
0 -3 -6 -20 -14 -37 -8 -18 -29 -77 -47 -132 -17 -55 -36 -109 -40 -120 -22
-56 -39 -139 -39 -190 0 -68 19 -104 68 -131 32 -17 57 -19 226 -18 219 0 261
10 333 77 39 37 85 113 97 165 3 12 9 31 12 42 5 19 1 20 -75 20 -63 0 -81 -3
-81 -14 0 -24 -52 -115 -74 -129 -12 -8 -54 -20 -94 -27 -59 -11 -86 -11 -140
-1 -78 14 -102 32 -102 74 0 30 25 127 40 157 4 9 11 31 15 50 4 19 10 40 13
45 4 6 18 45 33 87 54 159 88 183 264 183 100 0 124 -3 138 -17 18 -18 23 -83
7 -93 -5 -3 -10 -13 -10 -21 0 -12 15 -14 82 -12 l82 3 9 35 c18 69 20 159 3
185 -29 44 -71 56 -211 60 -71 2 -152 0 -180 -5z"/>
<path d="M5495 3608 c-2 -7 -25 -76 -50 -153 -25 -77 -50 -149 -54 -160 -5
-11 -30 -87 -56 -170 -26 -82 -51 -158 -56 -167 -5 -10 -9 -23 -9 -29 0 -6 -6
-25 -13 -42 -8 -18 -20 -53 -29 -79 l-16 -48 298 0 298 0 20 62 c11 34 18 66
16 70 -3 4 -98 8 -211 8 l-205 0 7 38 c4 20 10 42 15 47 5 6 11 27 15 48 4 20
11 40 16 43 5 3 9 13 9 24 0 10 7 21 16 24 9 3 101 6 205 6 l189 0 10 28 c6
15 15 35 20 44 6 10 10 27 10 38 0 19 -6 20 -195 20 -169 0 -195 2 -195 15 0
9 14 58 32 110 l32 95 216 0 215 0 18 58 c9 31 17 63 17 70 0 9 -65 12 -290
12 -224 0 -292 -3 -295 -12z"/>
<path d="M6220 3604 c0 -9 -6 -30 -14 -47 -7 -18 -60 -174 -116 -347 -56 -173
-106 -322 -110 -331 -5 -9 -12 -33 -15 -53 -4 -20 -11 -36 -16 -36 -5 0 -9 -7
-9 -15 0 -13 38 -15 283 -15 l283 0 21 62 c12 34 20 65 17 70 -3 4 -91 8 -196
8 l-191 0 7 42 c4 23 11 47 15 53 5 5 12 26 16 45 4 19 11 40 15 45 4 6 10 21
13 35 5 27 25 86 37 110 4 9 11 31 15 50 4 19 11 40 15 45 4 6 11 26 15 45 4
19 11 40 15 45 4 6 11 26 15 45 4 19 11 41 15 50 11 22 30 85 30 98 0 8 -25
12 -80 12 -67 0 -80 -3 -80 -16z"/>
<path d="M6857 3593 c-5 -29 -24 -86 -38 -114 -4 -9 -11 -33 -14 -53 -4 -20
-11 -38 -15 -41 -5 -3 -11 -23 -15 -45 -4 -22 -11 -42 -16 -46 -5 -3 -9 -14
-9 -26 0 -11 -6 -34 -14 -51 -7 -18 -22 -59 -32 -92 -10 -33 -21 -64 -25 -70
-4 -5 -10 -27 -14 -48 -4 -20 -11 -39 -15 -42 -5 -3 -11 -23 -15 -45 -4 -22
-11 -42 -16 -46 -5 -3 -9 -15 -9 -27 0 -12 -7 -35 -15 -51 -8 -15 -15 -30 -15
-32 0 -2 134 -3 298 -2 l297 3 16 47 c8 26 18 51 22 54 3 3 3 12 0 20 -4 11
-43 14 -209 14 -201 0 -204 0 -204 21 0 12 6 35 13 52 8 18 22 58 32 90 10 31
19 58 19 59 1 1 93 4 204 7 l204 6 15 40 c8 22 17 50 20 63 l5 22 -196 0 -196
0 0 29 c0 17 4 32 9 35 5 3 12 23 16 43 4 21 10 43 15 48 4 6 10 22 14 37 l6
28 216 2 216 3 15 40 c8 22 17 52 20 68 l5 27 -295 0 -295 0 -5 -27z"/>
<path d="M7584 3603 c-3 -10 -9 -27 -13 -38 -5 -11 -23 -67 -42 -125 -18 -58
-36 -109 -40 -115 -4 -5 -10 -27 -14 -48 -4 -20 -11 -40 -16 -43 -5 -3 -9 -14
-9 -26 0 -11 -6 -34 -13 -51 -8 -18 -29 -79 -48 -137 -18 -58 -36 -109 -40
-115 -4 -5 -10 -27 -14 -48 -4 -20 -11 -40 -16 -43 -5 -3 -9 -16 -9 -30 0 -23
2 -24 80 -24 l79 0 7 35 c3 19 10 37 14 40 5 3 11 23 15 45 4 22 11 42 16 46
5 3 9 14 9 26 0 11 7 35 16 54 l16 34 148 0 c136 0 148 -2 166 -21 20 -22 23
-101 5 -123 -5 -6 -12 -28 -16 -49 -4 -20 -11 -40 -16 -43 -5 -3 -9 -14 -9
-25 0 -17 7 -19 79 -19 l79 0 22 73 c12 39 25 81 30 92 14 33 22 95 15 124 -6
26 -23 40 -70 56 -16 5 -10 11 33 28 92 38 135 98 186 264 34 109 15 171 -62
204 -39 17 -71 19 -303 19 -238 0 -260 -1 -265 -17z m447 -136 c25 -19 27 -38
8 -104 -25 -89 -57 -142 -101 -164 -32 -16 -60 -19 -183 -19 l-147 0 7 33 c4
17 11 36 16 42 5 5 9 18 9 28 0 10 6 33 13 50 8 18 22 58 32 90 l18 57 156 0
c107 -1 161 -4 172 -13z"/>
<path d="M8621 3598 c-5 -13 -18 -32 -29 -44 -11 -11 -23 -30 -26 -42 -4 -12
-12 -22 -17 -22 -5 0 -9 -5 -9 -10 0 -9 -35 -65 -50 -80 -3 -3 -9 -13 -15 -22
-5 -10 -26 -41 -46 -70 -20 -29 -62 -93 -95 -143 -32 -49 -62 -91 -66 -93 -5
-2 -8 -8 -8 -13 0 -9 -36 -65 -50 -79 -7 -7 -29 -43 -37 -60 -4 -8 -9 -17 -12
-20 -14 -12 -51 -70 -51 -80 0 -5 -4 -10 -8 -10 -5 0 -14 -11 -20 -25 l-12
-25 83 0 82 0 50 78 50 77 190 0 190 0 3 -77 3 -78 80 0 79 0 -2 428 -3 427
-123 3 c-119 3 -122 2 -131 -20z m99 -338 l0 -220 -151 0 -151 0 23 38 c13 20
26 39 29 42 4 3 9 12 13 20 10 22 28 50 60 91 15 20 27 42 27 48 0 6 5 11 10
11 6 0 10 5 10 10 0 12 41 73 53 78 4 2 7 8 7 13 0 12 53 88 63 89 4 0 7 -99
7 -220z"/>
</g>
</svg>
